<?xml version="1.0" encoding="UTF-8" standalone="no"?>
<!DOCTYPE svg PUBLIC "-//W3C//DTD SVG 1.1//EN" "http://www.w3.org/Graphics/SVG/1.1/DTD/svg11.dtd">
<svg xmlns="http://www.w3.org/2000/svg" version="1.1" viewBox="0.00 0.00 1024.00 1024.00">
<g stroke-width="2.00" fill="none" stroke-linecap="butt">
<path stroke="#b8a473" vector-effect="non-scaling-stroke" d="
  M 661.61 456.55
  Q 662.04 457.03 661.61 456.93"
/>
<path stroke="#ed5f29" vector-effect="non-scaling-stroke" d="
  M 521.68 414.47
  L 506.52 413.88"
/>
<path stroke="#ed5f29" vector-effect="non-scaling-stroke" d="
  M 478.48 488.44
  C 469.23 488.09 461.67 494.07 458.14 502.34
  Q 454.83 510.10 457.27 518.24
  Q 459.24 524.80 462.29 528.23
  Q 466.46 532.93 469.97 536.90"
/>
<path stroke="#536f75" vector-effect="non-scaling-stroke" d="
  M 574.05 684.85
  Q 572.46 683.51 570.92 684.64
  Q 570.43 684.99 570.89 685.38
  Q 571.22 685.67 571.99 685.74"
/>
</g>
<path fill="#f9992a" d="
  M 484.89 353.80
  Q 492.46 340.75 503.75 329.50
  Q 507.89 325.37 513.19 321.45
  A 1.09 1.08 42.4 0 1 514.41 321.40
  Q 516.60 322.74 517.59 325.08
  C 519.20 328.86 520.87 332.47 521.75 336.61
  Q 522.74 341.25 523.92 345.70
  C 524.89 349.37 524.43 355.36 523.15 359.68
  Q 522.09 363.24 521.14 366.67
  Q 520.18 370.12 517.14 375.52
  C 514.03 381.03 509.67 385.73 505.72 390.72
  A 1.00 0.99 -43.3 0 1 504.13 390.68
  C 501.49 386.96 499.55 383.13 496.65 379.47
  Q 490.35 371.54 484.28 363.76
  C 481.95 360.77 482.97 357.09 484.89 353.80
  Z"
/>
<path fill="#f9992a" d="
  M 661.61 456.55
  Q 662.04 457.03 661.61 456.93
  C 660.77 458.26 660.87 459.72 659.40 460.45
  Q 658.58 460.86 656.53 460.88
  Q 632.35 461.09 608.84 460.89
  A 0.70 0.69 87.3 0 1 608.15 460.26
  Q 607.77 455.94 606.31 451.81
  C 604.85 447.71 605.21 443.53 603.91 439.49
  C 602.43 434.89 601.49 430.21 599.85 425.56
  C 596.59 416.38 593.63 407.39 588.58 399.18
  C 587.58 397.55 586.16 397.43 584.45 398.06
  Q 571.08 402.99 560.73 408.51
  C 558.51 409.69 556.26 409.93 553.95 408.90
  Q 549.50 406.93 545.13 406.09
  C 541.24 405.34 537.80 403.64 533.64 403.54
  Q 523.35 403.30 512.49 402.39
  Q 510.76 402.25 511.90 400.93
  Q 516.35 395.77 521.33 390.21
  Q 524.08 387.14 527.79 384.61
  C 531.01 382.43 533.78 380.04 537.21 378.05
  Q 544.26 373.96 549.18 372.16
  Q 552.81 370.83 556.70 369.66
  Q 560.54 368.50 564.50 368.03
  Q 577.44 366.51 590.39 368.00
  Q 594.42 368.47 597.87 369.60
  C 601.23 370.70 604.56 371.41 607.83 372.74
  C 616.19 376.16 624.77 380.69 631.36 386.59
  Q 649.70 403.03 657.17 427.59
  Q 659.26 434.45 659.66 441.51
  Q 659.74 442.91 660.57 446.53
  C 661.33 449.80 660.98 453.15 661.61 456.55
  Z"
/>
<path fill="#e02427" d="
  M 359.51 420.85
  Q 368.57 399.23 383.79 386.69
  C 390.52 381.14 399.08 375.95 407.45 372.81
  Q 419.18 368.41 434.32 367.96
  Q 463.72 367.08 485.08 386.46
  C 488.72 389.76 491.44 393.72 494.50 397.44
  Q 495.46 398.61 496.06 399.93
  A 1.57 1.56 -20.9 0 1 495.10 402.07
  Q 488.41 404.17 481.11 406.68
  C 468.17 411.11 455.04 419.09 446.57 429.97
  Q 436.54 442.87 429.47 458.12
  C 428.31 460.64 426.02 461.12 423.55 461.09
  Q 390.80 460.60 356.56 460.94
  Q 355.42 460.95 355.35 459.81
  C 354.55 446.12 354.41 433.03 359.51 420.85
  Z"
/>
<path fill="#f9992a" d="
  M 521.68 414.47
  L 506.52 413.88
  Q 513.81 412.12 521.68 414.47
  Z"
/>
<path fill="#e02427" d="
  M 506.52 413.88
  L 521.68 414.47
  Q 530.72 415.48 534.05 416.87
  Q 536.52 417.89 538.81 419.08
  A 0.70 0.70 0.0 0 1 538.80 420.33
  C 532.04 423.63 525.36 427.26 519.53 432.05
  Q 515.43 435.42 511.37 438.68
  C 507.74 441.58 504.52 445.11 501.49 448.71
  Q 495.90 455.37 491.49 461.28
  Q 484.37 470.83 481.06 479.05
  Q 480.29 480.98 478.48 488.44
  C 469.23 488.09 461.67 494.07 458.14 502.34
  Q 454.83 510.10 457.27 518.24
  Q 459.24 524.80 462.29 528.23
  Q 466.46 532.93 469.97 536.90
  Q 467.10 539.29 464.19 542.44
  C 461.95 544.88 455.98 544.56 452.92 544.14
  C 447.11 543.35 445.01 538.78 442.71 533.99
  Q 438.99 526.26 437.95 519.64
  C 437.34 515.73 435.71 512.25 435.49 508.32
  Q 434.44 489.78 435.02 474.45
  Q 435.40 464.41 441.08 454.63
  Q 447.23 444.06 453.63 437.81
  Q 463.11 428.57 476.31 422.31
  Q 489.95 415.84 506.52 413.88
  Z"
/>
<path fill="#f9992a" d="
  M 574.17 423.79
  Q 576.98 422.53 579.98 422.54
  A 2.32 2.32 0.0 0 1 582.02 425.93
  C 579.43 430.92 576.03 435.86 571.13 438.89
  Q 565.84 442.15 559.99 444.97
  Q 558.80 445.54 558.00 444.48
  Q 556.37 442.30 555.66 439.82
  Q 555.50 439.26 555.75 438.72
  Q 556.46 437.18 557.56 435.88
  Q 563.96 428.35 574.17 423.79
  Z"
/>
<path fill="#f9992a" d="
  M 528.23 463.02
  C 531.75 455.45 538.59 447.54 546.70 444.44
  Q 547.91 443.98 549.07 444.68
  C 552.12 446.52 553.63 449.07 551.65 452.58
  Q 545.85 462.87 534.52 466.57
  C 532.32 467.29 526.38 466.99 528.23 463.02
  Z"
/>
<path fill="#f9992a" d="
  M 513.91 462.30
  Q 509.74 464.28 506.24 463.49
  A 0.62 0.62 0.0 0 1 505.77 462.74
  C 507.16 457.14 513.71 450.48 518.28 446.72
  C 521.78 443.85 526.30 444.34 530.65 444.95
  Q 531.44 445.06 530.96 445.69
  Q 528.38 449.15 526.03 452.99
  C 523.20 457.60 518.61 460.07 513.91 462.30
  Z"
/>
<path fill="#f9992a" d="
  M 560.15 459.55
  C 563.81 453.34 571.92 445.83 578.34 444.60
  C 580.79 444.13 583.46 445.28 583.23 448.12
  C 582.69 454.93 575.58 460.69 569.29 463.49
  Q 564.88 465.46 561.11 463.23
  Q 558.79 461.86 560.15 459.55
  Z"
/>
<path fill="#76aebb" d="
  M 661.61 456.93
  Q 662.04 457.03 661.61 456.55
  Q 663.08 453.89 667.38 455.41
  A 1.34 1.34 0.0 0 1 668.26 456.51
  C 669.32 464.99 670.96 473.98 669.79 482.48
  C 668.99 488.29 669.14 493.64 668.19 499.17
  Q 663.81 524.78 649.34 544.86
  C 644.31 551.84 636.65 558.67 629.20 563.55
  Q 605.33 579.18 577.03 582.85
  C 571.87 583.52 567.17 585.09 561.98 585.22
  Q 550.01 585.52 537.90 585.20
  Q 532.82 585.07 528.13 584.00
  C 516.31 581.32 504.20 583.37 492.26 580.57
  Q 487.02 579.34 476.33 579.25
  Q 460.77 579.12 446.23 579.36
  C 442.91 579.41 439.50 579.59 436.29 580.36
  Q 428.29 582.28 417.97 582.46
  C 412.82 582.55 408.04 584.21 402.98 585.08
  C 400.05 585.59 397.26 585.95 394.42 586.93
  C 389.83 588.52 385.03 589.08 380.30 590.73
  Q 375.06 592.54 369.79 594.23
  Q 363.97 596.10 359.32 597.92
  Q 352.17 600.72 345.52 602.94
  Q 340.68 604.55 345.07 601.95
  Q 355.56 595.75 365.72 590.51
  Q 378.45 583.94 401.50 574.66
  Q 404.86 573.31 408.23 572.36
  C 411.31 571.49 414.11 570.05 417.31 569.63
  Q 422.22 568.97 427.21 567.39
  C 428.80 566.88 430.63 566.75 432.31 566.68
  Q 457.78 565.57 483.33 564.97
  C 506.33 564.42 528.96 566.85 551.84 564.55
  Q 556.94 564.03 562.67 563.67
  C 569.13 563.26 575.78 563.60 581.92 561.73
  C 585.73 560.58 589.66 560.02 593.37 558.64
  Q 617.15 549.83 632.91 533.02
  Q 649.02 515.84 657.92 490.42
  C 659.39 486.23 659.49 481.94 660.74 477.67
  Q 663.70 467.57 661.61 456.93
  Z"
/>
<ellipse fill="#f9992a" cx="0.00" cy="0.00" transform="translate(546.25,477.27) rotate(-36.3)" rx="14.13" ry="6.26"/>
<path fill="#f9992a" d="
  M 563.45 480.86
  C 566.64 475.73 576.13 465.89 583.17 467.37
  A 2.01 2.00 8.3 0 1 584.75 469.48
  Q 584.67 470.58 584.10 471.56
  C 580.48 477.88 572.39 486.94 563.91 482.56
  A 1.20 1.20 0.0 0 1 563.45 480.86
  Z"
/>
<path fill="#f9992a" d="
  M 469.97 536.90
  Q 466.46 532.93 462.29 528.23
  Q 459.24 524.80 457.27 518.24
  Q 454.83 510.10 458.14 502.34
  C 461.67 494.07 469.23 488.09 478.48 488.44
  Q 483.56 491.85 488.84 495.53
  C 490.76 496.87 493.29 497.78 494.84 499.50
  Q 495.87 500.65 497.29 501.49
  Q 502.55 504.62 507.75 506.91
  C 511.80 508.70 516.08 509.06 520.32 510.34
  C 526.16 512.09 532.66 511.83 539.02 512.06
  Q 551.45 512.53 563.36 507.36
  Q 570.94 504.07 578.83 499.29
  C 583.69 496.35 587.59 492.69 592.03 489.38
  C 595.32 486.92 598.31 481.11 602.41 480.24
  A 0.96 0.95 -86.1 0 1 603.50 481.50
  Q 600.77 489.27 597.05 496.80
  Q 592.83 505.34 589.52 509.50
  C 582.10 518.85 573.27 526.81 562.40 532.56
  Q 553.22 537.41 544.90 540.01
  Q 540.37 541.43 535.54 542.78
  C 531.03 544.05 526.53 543.89 522.12 545.11
  C 513.58 547.46 502.92 547.90 494.02 545.38
  Q 491.18 544.58 488.16 544.05
  Q 485.42 543.58 482.32 542.24
  Q 476.44 539.70 469.97 536.90
  Z"
/>
<path fill="#f9992a" d="
  M 508.92 484.60
  C 512.18 483.15 518.55 481.33 521.23 484.00
  Q 522.61 485.38 521.55 487.31
  C 517.91 493.93 510.80 496.11 503.81 498.20
  Q 500.42 499.21 497.44 498.94
  A 2.27 2.26 -89.3 0 1 495.38 496.82
  C 495.26 494.96 496.34 494.15 497.46 492.91
  Q 502.30 487.54 508.92 484.60
  Z"
/>
<path fill="#f9992a" d="
  M 556.16 490.48
  C 559.79 489.16 562.86 490.37 565.58 492.81
  A 1.62 1.61 -52.8 0 1 565.86 494.90
  Q 561.47 501.56 554.42 504.10
  C 551.24 505.25 547.47 505.53 543.99 505.87
  Q 543.23 505.94 542.64 505.87
  A 2.44 2.44 0.0 0 1 540.79 502.28
  C 543.71 496.89 550.86 492.40 556.16 490.48
  Z"
/>
<path fill="#2f2f2e" d="
  M 147.94 616.93
  C 151.11 614.24 153.42 610.68 156.71 608.16
  C 158.18 607.04 159.14 605.64 160.44 604.40
  Q 174.67 590.82 179.89 586.39
  C 181.52 585.01 182.99 585.99 184.52 586.99
  Q 201.37 598.11 215.92 609.57
  Q 217.31 610.66 215.54 610.76
  C 212.91 610.91 210.87 609.05 208.39 608.21
  C 200.50 605.52 192.98 602.55 184.82 601.58
  Q 179.99 601.01 174.24 603.52
  C 165.99 607.13 158.45 612.19 151.37 617.38
  Q 148.82 619.24 146.34 620.48
  Q 145.47 620.91 145.78 619.99
  Q 146.35 618.28 147.94 616.93
  Z"
/>
<path fill="#2f2f2e" d="
  M 794.11 608.19
  C 790.83 607.43 787.99 605.81 784.71 604.80
  C 778.50 602.90 772.15 600.04 765.79 601.80
  C 756.70 604.33 748.15 609.64 740.57 615.08
  C 739.41 615.91 738.05 616.22 736.99 617.21
  Q 735.61 618.50 733.78 619.02
  A 0.36 0.35 -89.9 0 1 733.34 618.57
  Q 733.49 618.04 733.90 617.65
  C 736.84 614.88 739.31 611.74 742.26 608.99
  Q 753.79 598.20 765.35 586.90
  Q 767.44 584.85 769.93 586.39
  C 775.96 590.13 781.19 594.41 786.91 598.40
  C 792.13 602.04 796.87 606.20 801.98 609.92
  A 0.47 0.47 0.0 0 1 801.85 610.74
  C 798.56 611.85 796.95 608.86 794.11 608.19
  Z"
/>
<path fill="#2f2f2e" d="
  M 393.18 670.91
  A 0.82 0.82 0.0 0 0 393.99 671.93
  L 421.48 671.49
  A 4.60 4.60 0.0 0 1 425.51 673.75
  L 435.35 690.37
  A 0.63 0.63 0.0 0 1 434.81 691.32
  Q 410.89 691.17 385.35 691.26
  C 380.87 691.28 379.81 694.81 377.83 697.86
  Q 376.54 699.84 375.58 701.65
  Q 369.70 712.66 364.57 720.81
  Q 363.04 723.25 359.44 723.41
  Q 350.79 723.77 341.50 722.96
  A 0.43 0.43 0.0 0 1 341.17 722.32
  Q 351.11 705.25 360.77 688.50
  Q 365.45 680.40 370.05 672.01
  Q 375.02 662.95 379.69 654.24
  Q 385.51 643.37 390.02 635.73
  Q 396.79 624.28 409.76 623.37
  C 414.16 623.07 420.81 623.44 424.76 625.47
  Q 430.65 628.52 433.33 632.26
  Q 437.80 638.52 442.23 646.34
  Q 461.73 680.75 482.27 716.30
  Q 484.04 719.37 486.64 722.58
  A 0.48 0.48 0.0 0 1 486.28 723.37
  Q 475.00 723.70 464.83 723.11
  Q 462.77 722.98 461.75 721.08
  C 456.92 712.12 451.75 703.80 446.77 694.61
  Q 434.18 671.38 421.73 651.83
  Q 419.31 648.03 416.66 645.12
  C 412.97 641.07 408.59 643.96 406.10 647.45
  Q 399.68 656.44 394.70 666.77
  Q 393.71 668.82 393.18 670.91
  Z"
/>
<path fill="#2f2f2e" d="
  M 306.69 643.21
  Q 306.54 643.14 306.39 643.09
  Q 306.25 643.03 306.10 643.03
  Q 253.69 643.12 201.55 643.17
  Q 192.93 643.17 183.50 643.58
  Q 180.13 643.73 178.61 646.43
  C 176.71 649.81 175.70 653.11 177.49 656.95
  C 179.28 660.81 182.25 662.16 186.28 662.14
  C 188.88 662.12 191.45 662.48 194.06 662.48
  Q 228.47 662.46 258.73 662.52
  A 0.97 0.97 0.0 0 1 259.70 663.46
  Q 260.03 672.20 259.31 678.82
  C 258.71 684.39 251.97 684.46 247.66 684.45
  Q 222.18 684.42 191.66 684.39
  Q 187.21 684.38 182.49 684.90
  C 180.32 685.13 177.74 686.07 176.85 688.29
  C 175.33 692.06 174.54 698.62 178.02 701.49
  C 181.80 704.61 190.27 704.01 195.09 704.00
  Q 234.17 703.99 267.62 704.04
  Q 268.88 704.04 268.87 705.30
  L 268.82 722.17
  A 1.06 1.06 0.0 0 1 267.76 723.23
  Q 223.33 723.18 183.64 723.32
  C 171.01 723.37 156.69 714.69 156.06 700.85
  C 155.85 696.19 156.18 690.87 157.22 686.49
  C 158.53 681.02 162.67 676.60 166.76 672.66
  A 0.80 0.80 0.0 0 0 166.76 671.50
  C 161.61 666.64 156.95 661.00 156.59 653.71
  C 156.29 647.64 157.19 642.12 160.90 637.11
  Q 170.59 624.02 188.22 623.98
  Q 277.80 623.78 365.21 624.02
  Q 366.83 624.02 366.64 625.63
  Q 365.82 632.64 365.83 640.34
  Q 365.84 643.01 363.17 643.03
  L 327.89 643.21
  Q 326.40 643.21 326.40 644.70
  Q 326.33 681.34 326.49 718.02
  Q 326.50 720.40 326.23 722.61
  Q 326.15 723.26 325.49 723.26
  L 308.01 723.19
  A 0.92 0.92 0.0 0 1 307.10 722.27
  L 307.20 644.01
  Q 307.20 643.45 306.69 643.21
  Z"
/>
<path fill="#2f2f2e" d="
  M 518.09 624.00
  A 0.25 0.25 0.0 0 1 518.34 624.25
  L 518.14 662.42
  A 11.08 10.23 -89.7 0 1 507.85 673.44
  L 506.43 673.44
  A 11.08 10.23 -89.7 0 1 496.26 662.30
  L 496.46 624.13
  A 0.25 0.25 0.0 0 1 496.71 623.88
  L 518.09 624.00
  Z"
/>
<path fill="#2f2f2e" d="
  M 755.70 672.96
  Q 756.52 672.19 755.69 671.44
  C 750.78 667.00 745.36 662.66 745.22 655.48
  C 745.09 648.85 745.56 641.55 749.47 635.93
  C 753.12 630.68 761.30 626.19 767.26 625.00
  Q 773.40 623.78 778.76 623.79
  Q 816.36 623.89 849.34 623.89
  C 852.91 623.89 856.15 623.55 859.68 624.33
  A 0.70 0.69 10.6 0 1 860.22 625.11
  C 859.71 628.48 858.89 631.82 859.27 635.24
  Q 859.63 638.49 859.58 641.67
  Q 859.57 642.43 858.84 642.59
  Q 856.98 642.99 855.33 642.99
  Q 824.23 643.11 790.47 643.01
  Q 780.70 642.98 770.64 643.75
  C 768.71 643.90 766.94 645.27 766.19 647.05
  C 763.39 653.67 765.25 661.76 773.76 662.13
  Q 779.25 662.37 783.30 662.39
  Q 812.97 662.50 845.65 662.66
  Q 847.36 662.66 849.40 662.88
  A 0.76 0.75 6.0 0 1 850.08 663.71
  Q 849.51 668.89 849.39 674.70
  C 849.27 680.58 846.02 684.10 840.02 684.15
  Q 805.10 684.41 777.00 684.14
  C 772.03 684.09 766.17 684.27 764.95 690.40
  C 763.91 695.58 764.11 702.46 770.62 703.62
  Q 773.01 704.05 775.93 704.05
  Q 813.93 704.00 856.37 704.00
  Q 857.61 704.00 857.60 705.24
  L 857.55 722.25
  A 0.99 0.99 0.0 0 1 856.56 723.24
  Q 813.68 723.19 773.00 723.33
  Q 762.65 723.36 754.80 717.89
  C 749.88 714.46 745.68 709.01 744.57 702.95
  C 744.02 699.96 742.85 696.92 743.38 693.91
  Q 744.17 689.43 745.79 684.64
  C 747.41 679.85 751.97 676.41 755.70 672.96
  Z"
/>
<path fill="#2f2f2e" d="
  M 574.05 684.85
  Q 572.46 683.51 570.92 684.64
  Q 570.43 684.99 570.89 685.38
  Q 571.22 685.67 571.99 685.74
  Q 571.40 686.55 572.06 687.20
  Q 574.92 690.02 576.97 692.66
  Q 579.91 696.45 581.63 698.28
  C 586.41 703.36 590.68 709.73 594.70 714.33
  Q 597.93 718.02 601.53 722.12
  Q 602.09 722.76 601.32 723.14
  Q 600.76 723.41 600.14 723.43
  Q 590.61 723.76 580.51 723.25
  C 577.72 723.10 575.51 721.24 573.81 719.23
  Q 564.69 708.41 557.10 698.49
  Q 551.13 690.69 544.88 683.99
  Q 536.79 675.31 528.69 667.04
  A 0.62 0.61 -42.8 0 1 528.73 666.15
  Q 529.18 665.75 529.75 665.75
  Q 551.17 665.68 569.77 665.30
  Q 579.12 665.10 580.99 656.98
  C 581.74 653.75 580.12 651.04 578.93 648.22
  C 577.38 644.59 572.98 643.37 569.44 643.29
  Q 549.72 642.86 529.04 643.04
  A 1.39 1.38 -90.0 0 1 527.64 641.63
  Q 527.72 635.74 527.55 629.82
  Q 527.49 627.70 526.88 625.81
  Q 526.34 624.10 528.12 624.08
  Q 548.66 623.85 566.35 624.08
  Q 579.74 624.24 589.63 632.00
  C 596.38 637.29 599.51 643.61 601.00 651.80
  C 602.30 658.94 597.83 668.86 594.05 674.20
  Q 592.27 676.73 588.19 679.11
  Q 581.43 683.06 574.05 684.85
  Z"
/>
<path fill="#2f2f2e" d="
  M 614.56 636.67
  A 12.82 12.82 0.0 0 1 627.42 623.90
  L 682.64 624.09
  A 52.02 49.34 0.2 0 1 734.49 673.61
  L 734.49 674.23
  A 52.02 49.34 0.2 0 1 682.30 723.39
  L 627.08 723.19
  A 12.82 12.82 0.0 0 1 614.30 710.33
  L 614.56 636.67
  Z
  M 633.97 645.30
  L 634.07 701.98
  A 2.14 2.14 0.0 0 0 636.21 704.12
  L 679.40 704.04
  A 36.67 30.48 -0.1 0 0 716.02 673.50
  L 716.02 673.50
  A 36.67 30.48 -0.1 0 0 679.30 643.08
  L 636.11 643.16
  A 2.14 2.14 0.0 0 0 633.97 645.30
  Z"
/>
<path fill="#2f2f2e" d="
  M 514.00 679.38
  Q 515.69 678.66 517.49 678.27
  Q 518.03 678.16 518.09 678.71
  Q 518.32 680.97 518.31 683.00
  Q 518.23 702.15 518.27 721.93
  A 1.34 1.34 0.0 0 1 516.92 723.27
  L 498.86 723.13
  A 1.27 1.27 0.0 0 1 497.60 721.78
  Q 497.89 717.23 497.73 713.00
  Q 497.09 696.96 497.16 680.12
  A 0.90 0.89 17.4 0 1 498.56 679.39
  C 499.65 680.13 500.61 680.86 501.97 681.06
  Q 508.01 681.92 514.00 679.38
  Z"
/>
<path fill="#76aebb" d="
  M 574.05 684.85
  L 571.99 685.74
  Q 571.22 685.67 570.89 685.38
  Q 570.43 684.99 570.92 684.64
  Q 572.46 683.51 574.05 684.85
  Z"
/>
</svg>
