<?xml version="1.0" encoding="UTF-8" standalone="no"?>
<!DOCTYPE svg PUBLIC "-//W3C//DTD SVG 1.1//EN" "http://www.w3.org/Graphics/SVG/1.1/DTD/svg11.dtd">
<svg xmlns="http://www.w3.org/2000/svg" version="1.1" viewBox="0.00 0.00 1024.00 1024.00">
<g stroke-width="2.00" fill="none" stroke-linecap="butt">
<path stroke="#c45f64" vector-effect="non-scaling-stroke" d="
  M 710.76 511.96
  L 706.93 511.88
  A 2.02 2.01 -5.5 0 1 705.01 510.31
  Q 704.38 507.45 702.75 504.40
  Q 702.50 503.92 701.98 503.77
  Q 700.56 503.34 700.23 502.01
  Q 700.04 501.23 699.37 501.68
  Q 699.01 501.92 698.66 501.69
  A 1.12 1.08 -78.0 0 1 698.18 500.92
  Q 697.92 498.83 695.96 497.52
  Q 695.53 497.23 695.03 497.35
  Q 694.06 497.58 693.31 498.20
  Q 692.76 498.67 692.73 497.94
  Q 692.63 495.34 690.34 494.90
  Q 689.90 494.81 689.69 495.20
  L 689.39 495.74
  Q 689.09 496.29 688.94 495.68
  Q 688.47 493.82 687.44 492.62
  Q 686.97 492.07 686.58 492.68
  L 686.36 493.02
  Q 685.76 493.95 685.54 492.87
  L 684.99 490.19
  Q 684.87 489.61 685.15 489.10
  L 685.92 487.72
  Q 686.19 487.23 685.70 486.95
  Q 684.50 486.27 683.65 485.04
  Q 683.37 484.64 683.68 484.27
  Q 685.21 482.48 684.29 480.45
  Q 684.09 479.99 683.58 479.97
  L 680.36 479.88
  Q 679.82 479.87 679.65 479.35
  L 679.05 477.50
  Q 678.91 477.08 679.11 476.69
  L 681.31 472.35
  Q 681.52 471.92 681.32 471.49
  L 679.23 466.94
  Q 679.05 466.55 679.24 466.16
  Q 680.22 464.19 679.02 461.95
  Q 677.60 459.29 677.13 456.92
  Q 677.03 456.42 676.57 456.19
  L 675.55 455.67
  Q 675.09 455.43 675.26 454.95
  L 675.62 453.91
  Q 675.78 453.48 675.59 453.05
  L 673.61 448.49
  Q 673.44 448.12 673.04 448.12
  L 672.53 448.12
  Q 671.97 448.12 671.94 447.56
  L 671.73 442.49"
/>
<path stroke="#aa6b70" vector-effect="non-scaling-stroke" d="
  M 634.83 470.59
  Q 637.13 467.27 634.24 463.64
  Q 633.94 463.26 633.91 462.77
  Q 633.81 461.25 632.71 460.29
  C 631.47 459.19 631.19 457.32 631.13 455.73
  Q 631.00 451.83 628.59 449.12
  A 0.67 0.67 0.0 0 1 629.05 448.00
  L 631.13 447.88
  Q 631.53 447.85 631.24 447.57
  L 629.30 445.67
  Q 628.93 445.32 628.95 444.80
  Q 629.08 440.76 626.67 437.03
  Q 626.42 436.66 626.86 436.74
  Q 626.95 436.75 627.03 436.71
  Q 627.79 436.29 626.94 436.06
  Q 626.81 436.03 626.83 435.90
  Q 626.91 435.37 626.32 435.46
  Q 625.38 435.62 624.92 435.02"
/>
<path stroke="#907482" vector-effect="non-scaling-stroke" d="
  M 584.41 573.71
  L 584.25 577.62
  A 0.27 0.24 -23.1 0 1 584.16 577.81
  Q 583.99 577.95 583.87 577.79
  Q 583.56 577.40 583.60 577.90
  Q 583.68 579.00 583.27 580.03
  Q 582.66 581.56 582.42 579.93
  Q 582.36 579.50 582.62 579.06
  Q 582.67 578.98 582.66 578.98
  L 582.49 578.80
  Q 582.04 578.31 582.07 578.97
  Q 582.23 582.29 581.61 585.52
  Q 581.58 585.70 581.40 585.68
  Q 581.35 585.68 581.31 585.64
  Q 581.06 585.33 580.85 585.70
  Q 579.89 587.36 579.64 589.22
  Q 579.44 590.75 579.04 591.76
  Q 578.55 592.99 578.33 594.31
  Q 578.22 594.95 578.02 594.34
  Q 577.90 593.97 578.06 593.64
  A 0.76 0.74 37.3 0 0 577.94 592.81
  L 576.58 591.26
  A 1.36 1.35 -71.4 0 1 576.26 590.61
  Q 575.81 588.06 574.55 585.45
  Q 574.36 585.04 574.16 585.45
  Q 574.03 585.72 574.21 585.91
  Q 574.61 586.30 574.14 586.61
  Q 573.79 586.83 573.65 587.19
  Q 573.37 587.90 573.19 587.16
  Q 572.32 583.75 570.81 580.81
  C 569.72 578.69 569.66 576.42 568.09 574.49
  Q 566.94 573.09 565.12 572.41
  A 1.79 1.78 -73.1 0 1 564.01 570.32
  L 564.97 566.30
  Q 565.13 565.65 564.55 565.32
  Q 561.30 563.50 563.07 560.46
  A 2.30 2.29 -47.9 0 0 562.95 557.95
  Q 560.87 555.08 561.80 551.69
  Q 561.93 551.23 562.10 551.67
  Q 562.55 552.85 563.67 553.60
  Q 564.28 554.00 563.96 553.34
  Q 563.21 551.82 562.82 550.18
  Q 562.64 549.44 562.34 548.77
  Q 561.88 547.73 562.43 546.70
  Q 564.81 542.27 561.48 539.11
  Q 561.08 538.73 561.06 538.19
  Q 560.98 535.65 558.90 535.37
  Q 558.31 535.29 558.54 534.75
  L 559.01 533.65
  Q 559.21 533.17 559.11 532.67
  Q 557.82 526.35 554.99 519.87
  Q 554.65 519.11 554.67 518.30
  Q 554.68 517.76 554.32 517.36
  Q 552.16 514.94 552.05 512.00
  A 0.04 0.04 0.0 0 0 551.98 511.98
  Q 551.84 512.20 551.62 512.06
  Q 551.49 511.97 551.42 511.83
  Q 550.51 509.93 549.18 508.41
  Q 548.98 508.18 548.90 508.48
  L 548.38 510.32
  Q 548.17 511.07 547.61 510.52
  Q 547.13 510.03 545.87 511.13
  A 1.60 1.60 0.0 0 0 545.61 513.25
  Q 546.07 513.91 546.30 514.66
  Q 546.46 515.18 545.94 515.02
  Q 543.85 514.36 544.05 512.11
  Q 544.06 511.97 543.93 511.94
  Q 543.77 511.90 543.61 511.91
  Q 543.35 511.93 543.22 511.70
  L 541.40 508.54
  Q 541.13 508.07 541.10 508.62
  Q 541.09 508.75 541.11 508.89
  A 0.04 0.03 -51.6 0 0 541.18 508.88
  Q 541.17 508.22 541.05 507.59
  Q 541.03 507.50 540.95 507.48
  Q 540.71 507.43 540.74 507.56
  Q 540.79 507.95 540.52 507.67
  Q 539.29 506.40 540.46 505.37
  Q 540.54 505.30 540.48 505.22
  Q 540.42 505.16 540.34 505.17
  Q 539.89 505.22 540.32 505.09
  Q 540.44 505.05 540.55 504.98
  Q 540.57 504.97 540.57 504.95
  Q 540.00 502.50 539.12 500.36
  Q 538.76 499.48 538.62 498.54
  Q 538.58 498.26 538.46 498.01
  Q 538.30 497.69 537.98 497.53
  Q 537.46 497.27 537.32 497.82
  Q 537.18 498.37 536.85 498.82
  Q 536.77 498.93 536.66 498.84
  Q 536.50 498.70 536.60 498.49
  A 0.25 0.24 11.0 0 0 536.36 498.14
  Q 535.66 498.20 535.00 497.78
  Q 534.58 497.51 534.57 497.01
  Q 534.57 496.22 534.72 495.45
  Q 534.77 495.22 534.58 495.07
  Q 534.53 495.03 534.49 495.09
  Q 534.07 495.67 533.94 494.91
  Q 533.81 494.17 533.60 493.26
  Q 533.56 493.09 533.39 493.13
  Q 533.23 493.18 533.24 493.31
  Q 533.25 493.70 532.96 493.44
  Q 532.29 492.84 532.22 491.92
  A 0.92 0.89 -78.7 0 0 531.75 491.19
  Q 530.12 490.33 529.73 488.25
  Q 529.64 487.83 529.28 487.67
  Q 528.87 487.49 528.20 487.76"
/>
<path stroke="#8b6f8b" vector-effect="non-scaling-stroke" d="
  M 499.11 435.52
  Q 498.91 436.76 499.79 436.98
  Q 500.26 437.09 500.26 437.58
  Q 500.27 438.11 499.98 438.58
  Q 499.72 439.02 499.98 439.47
  Q 501.63 442.28 502.21 445.89
  A 2.15 2.01 -69.6 0 0 502.61 446.85
  Q 503.27 447.72 502.48 448.35
  Q 502.08 448.67 502.24 449.15
  Q 503.55 453.14 506.31 456.08
  Q 506.49 456.27 506.56 456.51
  Q 506.60 456.65 506.61 456.80
  Q 506.63 457.03 506.73 457.24
  L 508.79 461.80
  A 1.26 1.21 4.0 0 0 509.29 462.35
  Q 512.48 464.21 514.01 468.69
  Q 514.11 468.99 513.96 469.27
  L 513.80 469.56
  Q 513.66 469.83 513.87 470.05
  Q 515.38 471.63 516.07 473.74
  Q 516.23 474.25 516.03 474.74
  Q 515.78 475.32 516.39 475.48
  Q 518.36 476.02 518.44 478.53"
/>
<path stroke="#787f8c" vector-effect="non-scaling-stroke" d="
  M 530.76 624.69
  Q 530.91 623.36 531.81 622.46
  Q 532.13 622.14 532.13 621.68
  L 532.13 619.02
  Q 532.13 618.56 531.70 618.72
  Q 531.47 618.81 531.42 618.49
  Q 531.04 615.83 530.74 612.61
  Q 530.69 612.12 530.36 611.75
  Q 529.39 610.67 528.95 609.35
  Q 528.22 607.16 527.96 606.54
  Q 527.41 605.22 526.85 603.85
  Q 526.54 603.09 526.62 602.07
  Q 526.68 601.22 526.64 600.23
  A 1.06 1.04 -77.3 0 0 526.10 599.36
  Q 525.59 599.07 525.76 598.56
  Q 525.92 598.05 525.75 597.55
  L 523.86 591.98
  Q 523.67 591.43 523.23 591.06
  Q 522.71 590.63 522.35 590.04
  Q 522.10 589.62 522.11 589.13
  Q 522.15 588.05 521.15 586.77"
/>
<path stroke="#787f8c" vector-effect="non-scaling-stroke" d="
  M 480.28 531.96
  Q 480.77 530.71 482.22 530.65
  Q 483.08 530.62 482.40 530.08
  Q 481.42 529.31 480.62 528.12
  Q 480.59 528.06 480.65 528.04
  Q 480.69 528.02 480.73 528.01
  Q 480.89 527.95 480.80 527.79
  Q 480.07 526.42 480.04 525.69
  Q 479.78 519.57 479.91 513.24
  Q 479.96 510.53 477.89 508.97
  Q 477.53 508.69 477.55 508.23
  L 477.75 503.60
  Q 477.77 503.03 477.28 502.74
  Q 476.47 502.25 476.72 501.29
  A 1.25 1.25 0.0 0 0 475.20 499.76
  Q 473.67 500.16 473.73 498.45"
/>
<path stroke="#597eaa" vector-effect="non-scaling-stroke" d="
  M 371.21 490.06
  Q 370.64 487.89 370.88 485.45
  A 0.70 0.70 0.0 0 0 370.36 484.70
  Q 369.87 484.57 369.90 484.12
  Q 369.98 483.07 368.94 482.93
  Q 368.43 482.87 367.97 482.65
  A 1.09 1.07 -83.1 0 1 367.40 481.91
  Q 367.06 480.28 365.96 479.04
  Q 365.68 478.71 365.63 477.99
  Q 365.61 477.51 365.33 477.11
  C 364.48 475.93 365.10 474.67 364.71 473.32
  Q 364.04 470.98 363.27 468.60
  Q 363.13 468.15 363.20 467.69
  C 363.53 465.54 362.27 464.73 361.86 462.88
  C 361.60 461.68 361.53 460.35 361.07 459.24
  C 360.59 458.10 360.95 456.63 360.75 455.35
  Q 360.28 452.21 360.01 449.28
  Q 359.97 448.90 359.55 448.17
  Q 359.45 447.99 359.62 447.90
  Q 359.84 447.80 360.00 447.97
  A 0.05 0.05 0.0 0 0 360.08 447.95
  Q 360.39 446.39 359.58 445.43
  A 0.10 0.10 0.0 0 1 359.61 445.27
  Q 359.81 445.18 359.81 445.03
  Q 359.77 443.94 359.57 445.08
  Q 359.46 445.71 358.67 445.93
  Q 358.13 446.07 358.04 445.51
  Q 357.62 442.73 357.26 440.01
  Q 357.12 438.99 356.81 438.07
  Q 356.43 436.96 356.09 435.81
  Q 355.65 434.30 355.54 432.70
  Q 355.13 426.96 354.95 421.33
  A 0.67 0.67 0.0 0 0 354.19 420.68
  L 353.85 420.72
  Q 353.20 420.81 353.18 420.15
  Q 353.04 414.45 352.18 408.35
  C 352.08 407.64 351.75 407.29 351.39 406.73
  Q 351.10 406.28 351.08 405.75
  Q 350.95 401.72 349.76 397.72
  Q 349.22 395.91 349.11 394.16
  Q 349.08 393.71 348.80 393.35
  Q 348.20 392.57 348.16 391.60
  A 2.01 2.00 27.2 0 0 347.85 390.64
  Q 346.59 388.61 347.06 386.64
  Q 347.17 386.14 346.78 386.47
  Q 345.65 387.38 344.95 386.11
  Q 344.05 384.50 343.76 382.64
  A 0.74 0.72 57.6 0 1 343.87 382.11
  Q 344.13 381.73 343.86 381.37
  Q 343.48 380.84 343.73 380.24
  Q 344.04 379.49 343.41 378.92
  Q 342.95 378.50 343.24 377.96
  Q 343.44 377.60 343.25 377.25
  Q 342.95 376.69 343.55 376.25
  Q 344.07 375.86 343.98 374.89"
/>
<path stroke="#3790bb" vector-effect="non-scaling-stroke" d="
  M 197.05 556.99
  Q 196.44 556.35 195.45 556.37
  Q 195.69 556.41 195.91 556.39
  Q 196.47 556.33 196.28 555.80
  Q 196.20 555.57 195.98 555.49
  Q 195.75 555.41 195.50 555.47
  Q 194.46 555.72 193.70 555.27
  Q 193.52 555.16 193.62 554.98
  Q 193.70 554.84 193.83 554.81
  Q 194.24 554.71 194.21 554.29
  Q 194.07 552.53 192.95 551.55
  Q 192.54 551.19 192.56 550.64
  Q 192.59 549.96 192.26 549.49
  Q 191.06 547.73 189.41 546.22
  A 2.23 2.23 0.0 0 1 188.87 543.70
  Q 189.29 542.72 188.78 541.88
  Q 188.54 541.47 188.66 541.02
  Q 188.96 539.90 188.12 539.14
  A 0.85 0.84 22.6 0 1 187.84 538.47
  C 187.97 536.24 186.76 535.72 185.78 534.01
  Q 185.34 533.24 185.32 532.33
  Q 185.29 531.03 185.09 529.79
  Q 184.99 529.20 185.36 528.72
  L 185.84 528.07
  Q 186.15 527.66 185.90 527.20
  L 184.67 524.99
  Q 184.33 524.39 183.68 524.64
  Q 183.08 524.87 182.86 524.32
  Q 182.74 524.00 182.42 523.89
  Q 182.00 523.74 181.56 523.66
  Q 181.16 523.59 181.55 523.46
  Q 181.73 523.41 181.86 523.26
  Q 182.14 522.93 181.71 522.90
  L 180.76 522.82
  Q 180.25 522.78 180.14 522.29
  Q 180.01 521.74 178.96 521.91"
/>
<path stroke="#3790bb" vector-effect="non-scaling-stroke" d="
  M 239.43 471.21
  Q 239.09 470.84 239.11 470.24
  Q 239.11 469.92 238.83 469.77
  L 238.47 469.58
  Q 237.97 469.31 238.52 469.15
  Q 239.29 468.93 239.81 468.38
  A 0.62 0.61 56.0 0 0 239.93 467.74
  L 237.57 461.72
  Q 237.43 461.37 237.15 461.10
  L 235.90 459.91
  A 1.09 1.08 22.9 0 1 235.57 459.11
  Q 235.62 457.76 235.50 456.33
  Q 235.39 455.02 234.93 453.79
  Q 234.01 451.29 233.63 448.65
  A 2.11 2.04 -68.7 0 0 233.23 447.70
  Q 232.44 446.65 232.62 445.41
  Q 232.72 444.68 232.08 444.32
  Q 229.90 443.11 230.62 440.87
  A 1.49 1.46 -49.5 0 0 230.54 439.75
  Q 230.16 439.00 230.15 438.13
  Q 230.14 437.56 229.64 437.30
  Q 229.39 437.18 229.22 436.97
  Q 228.69 436.35 229.48 436.12
  L 233.12 435.09"
/>
<path stroke="#d26f36" vector-effect="non-scaling-stroke" d="
  M 835.71 435.28
  Q 835.18 435.77 834.63 436.18
  Q 833.86 436.76 834.81 436.61
  Q 835.04 436.58 835.25 436.68
  Q 835.69 436.89 835.71 437.39
  Q 835.95 443.53 839.66 448.34
  Q 839.77 448.49 839.78 448.67
  Q 839.79 448.80 839.71 448.92
  Q 839.61 449.06 839.65 449.23
  L 841.27 456.15
  Q 841.40 456.68 840.94 456.97
  Q 840.26 457.39 839.47 457.37
  Q 838.66 457.35 839.00 458.09
  Q 839.16 458.42 839.05 458.77
  Q 838.82 459.49 839.57 459.39
  Q 840.44 459.28 840.65 460.11
  Q 840.76 460.54 840.38 460.79
  Q 839.83 461.14 839.85 461.76
  Q 839.92 464.07 840.72 467.17
  Q 840.86 467.69 840.48 468.09
  Q 839.91 468.68 840.13 469.59
  Q 840.35 470.49 841.23 470.61
  Q 841.54 470.65 841.34 470.89
  L 840.86 471.48
  A 0.07 0.05 -46.6 0 0 840.85 471.55
  Q 841.08 471.89 841.42 472.13
  Q 841.46 472.16 841.51 472.14
  Q 841.64 472.09 841.73 472.00
  Q 841.93 471.77 842.08 472.04
  Q 842.17 472.20 842.09 472.35
  Q 841.82 472.83 842.39 472.80
  Q 843.73 472.73 843.40 473.57"
/>
<path stroke="#d26f36" vector-effect="non-scaling-stroke" d="
  M 780.57 521.76
  Q 779.12 522.26 777.83 522.80
  Q 777.42 522.98 777.86 522.87
  Q 778.01 522.83 778.16 522.87
  Q 778.44 522.92 778.48 523.20
  Q 778.86 525.41 779.88 527.66
  Q 780.13 528.23 780.11 527.61
  Q 780.11 527.45 780.26 527.34
  Q 780.54 527.12 780.80 527.37
  Q 781.58 528.15 781.65 528.49
  Q 782.08 530.54 782.83 532.26
  Q 783.15 532.99 783.17 533.80
  Q 783.20 534.60 783.16 535.36
  Q 783.14 535.95 783.41 535.42
  Q 783.53 535.17 784.11 535.77
  A 0.68 0.62 -70.9 0 1 784.28 536.16
  Q 785.04 545.06 787.40 553.77
  Q 787.58 554.42 787.03 554.81
  Q 786.64 555.10 786.85 555.57
  Q 786.94 555.78 786.74 555.88
  Q 786.57 555.97 786.48 555.90
  Q 786.40 555.84 786.49 555.82
  Q 786.79 555.76 787.07 555.84
  Q 788.16 556.14 787.04 556.30
  Q 786.26 556.41 786.26 556.81"
/>
<path stroke="#c9763e" vector-effect="non-scaling-stroke" d="
  M 787.41 589.21
  Q 786.77 590.31 788.51 591.44
  Q 789.24 591.92 788.38 592.10
  Q 788.18 592.14 787.95 592.13
  Q 787.68 592.12 787.64 591.87
  Q 787.49 590.94 787.23 591.85
  C 786.53 594.35 785.76 595.54 787.14 598.30
  Q 788.05 600.12 786.30 600.79
  Q 785.87 600.95 785.74 601.40
  Q 785.00 604.01 784.63 606.66
  Q 784.07 610.61 782.66 614.42
  Q 782.50 614.86 782.93 614.68
  Q 783.07 614.62 783.21 614.57
  Q 783.90 614.34 783.89 615.06
  C 783.86 616.73 785.37 617.32 784.14 619.17
  Q 783.85 619.61 783.88 620.13
  L 784.64 630.96"
/>
</g>
<path fill="#cd5469" d="
  M 710.76 511.96
  L 706.93 511.88
  A 2.02 2.01 -5.5 0 1 705.01 510.31
  Q 704.38 507.45 702.75 504.40
  Q 702.50 503.92 701.98 503.77
  Q 700.56 503.34 700.23 502.01
  Q 700.04 501.23 699.37 501.68
  Q 699.01 501.92 698.66 501.69
  A 1.12 1.08 -78.0 0 1 698.18 500.92
  Q 697.92 498.83 695.96 497.52
  Q 695.53 497.23 695.03 497.35
  Q 694.06 497.58 693.31 498.20
  Q 692.76 498.67 692.73 497.94
  Q 692.63 495.34 690.34 494.90
  Q 689.90 494.81 689.69 495.20
  L 689.39 495.74
  Q 689.09 496.29 688.94 495.68
  Q 688.47 493.82 687.44 492.62
  Q 686.97 492.07 686.58 492.68
  L 686.36 493.02
  Q 685.76 493.95 685.54 492.87
  L 684.99 490.19
  Q 684.87 489.61 685.15 489.10
  L 685.92 487.72
  Q 686.19 487.23 685.70 486.95
  Q 684.50 486.27 683.65 485.04
  Q 683.37 484.64 683.68 484.27
  Q 685.21 482.48 684.29 480.45
  Q 684.09 479.99 683.58 479.97
  L 680.36 479.88
  Q 679.82 479.87 679.65 479.35
  L 679.05 477.50
  Q 678.91 477.08 679.11 476.69
  L 681.31 472.35
  Q 681.52 471.92 681.32 471.49
  L 679.23 466.94
  Q 679.05 466.55 679.24 466.16
  Q 680.22 464.19 679.02 461.95
  Q 677.60 459.29 677.13 456.92
  Q 677.03 456.42 676.57 456.19
  L 675.55 455.67
  Q 675.09 455.43 675.26 454.95
  L 675.62 453.91
  Q 675.78 453.48 675.59 453.05
  L 673.61 448.49
  Q 673.44 448.12 673.04 448.12
  L 672.53 448.12
  Q 671.97 448.12 671.94 447.56
  L 671.73 442.49
  Q 671.75 441.45 671.71 440.25
  Q 671.37 430.54 671.32 416.25
  Q 671.17 377.40 670.53 339.76
  Q 670.44 334.67 671.71 327.86
  C 672.77 322.21 678.41 316.96 683.20 314.77
  Q 686.72 313.17 692.50 313.34
  C 699.25 313.53 705.51 318.38 708.63 323.86
  C 710.78 327.63 710.45 331.76 710.46 336.28
  Q 710.59 424.12 710.76 511.96
  Z"
/>
<path fill="#6775a6" d="
  M 371.21 490.06
  Q 370.64 487.89 370.88 485.45
  A 0.70 0.70 0.0 0 0 370.36 484.70
  Q 369.87 484.57 369.90 484.12
  Q 369.98 483.07 368.94 482.93
  Q 368.43 482.87 367.97 482.65
  A 1.09 1.07 -83.1 0 1 367.40 481.91
  Q 367.06 480.28 365.96 479.04
  Q 365.68 478.71 365.63 477.99
  Q 365.61 477.51 365.33 477.11
  C 364.48 475.93 365.10 474.67 364.71 473.32
  Q 364.04 470.98 363.27 468.60
  Q 363.13 468.15 363.20 467.69
  C 363.53 465.54 362.27 464.73 361.86 462.88
  C 361.60 461.68 361.53 460.35 361.07 459.24
  C 360.59 458.10 360.95 456.63 360.75 455.35
  Q 360.28 452.21 360.01 449.28
  Q 359.97 448.90 359.55 448.17
  Q 359.45 447.99 359.62 447.90
  Q 359.84 447.80 360.00 447.97
  A 0.05 0.05 0.0 0 0 360.08 447.95
  Q 360.39 446.39 359.58 445.43
  A 0.10 0.10 0.0 0 1 359.61 445.27
  Q 359.81 445.18 359.81 445.03
  Q 359.77 443.94 359.57 445.08
  Q 359.46 445.71 358.67 445.93
  Q 358.13 446.07 358.04 445.51
  Q 357.62 442.73 357.26 440.01
  Q 357.12 438.99 356.81 438.07
  Q 356.43 436.96 356.09 435.81
  Q 355.65 434.30 355.54 432.70
  Q 355.13 426.96 354.95 421.33
  A 0.67 0.67 0.0 0 0 354.19 420.68
  L 353.85 420.72
  Q 353.20 420.81 353.18 420.15
  Q 353.04 414.45 352.18 408.35
  C 352.08 407.64 351.75 407.29 351.39 406.73
  Q 351.10 406.28 351.08 405.75
  Q 350.95 401.72 349.76 397.72
  Q 349.22 395.91 349.11 394.16
  Q 349.08 393.71 348.80 393.35
  Q 348.20 392.57 348.16 391.60
  A 2.01 2.00 27.2 0 0 347.85 390.64
  Q 346.59 388.61 347.06 386.64
  Q 347.17 386.14 346.78 386.47
  Q 345.65 387.38 344.95 386.11
  Q 344.05 384.50 343.76 382.64
  A 0.74 0.72 57.6 0 1 343.87 382.11
  Q 344.13 381.73 343.86 381.37
  Q 343.48 380.84 343.73 380.24
  Q 344.04 379.49 343.41 378.92
  Q 342.95 378.50 343.24 377.96
  Q 343.44 377.60 343.25 377.25
  Q 342.95 376.69 343.55 376.25
  Q 344.07 375.86 343.98 374.89
  Q 361.16 371.11 370.34 386.02
  Q 371.24 387.47 371.25 392.57
  Q 371.29 413.80 371.24 433.14
  Q 371.23 435.05 373.14 434.99
  Q 383.74 434.65 393.30 435.08
  C 403.40 435.54 410.17 447.36 406.89 456.31
  Q 404.29 463.38 397.58 466.83
  Q 394.89 468.21 387.86 468.14
  Q 380.24 468.07 372.82 467.89
  A 1.54 1.53 0.7 0 0 371.24 469.42
  L 371.21 490.06
  Z"
/>
<path fill="#4a87ae" d="
  M 343.98 374.89
  Q 344.07 375.86 343.55 376.25
  Q 342.95 376.69 343.25 377.25
  Q 343.44 377.60 343.24 377.96
  Q 342.95 378.50 343.41 378.92
  Q 344.04 379.49 343.73 380.24
  Q 343.48 380.84 343.86 381.37
  Q 344.13 381.73 343.87 382.11
  A 0.74 0.72 57.6 0 0 343.76 382.64
  Q 344.05 384.50 344.95 386.11
  Q 345.65 387.38 346.78 386.47
  Q 347.17 386.14 347.06 386.64
  Q 346.59 388.61 347.85 390.64
  A 2.01 2.00 27.2 0 1 348.16 391.60
  Q 348.20 392.57 348.80 393.35
  Q 349.08 393.71 349.11 394.16
  Q 349.22 395.91 349.76 397.72
  Q 350.95 401.72 351.08 405.75
  Q 351.10 406.28 351.39 406.73
  C 351.75 407.29 352.08 407.64 352.18 408.35
  Q 353.04 414.45 353.18 420.15
  Q 353.20 420.81 353.85 420.72
  L 354.19 420.68
  A 0.67 0.67 0.0 0 1 354.95 421.33
  Q 355.13 426.96 355.54 432.70
  Q 355.65 434.30 356.09 435.81
  Q 356.43 436.96 356.81 438.07
  Q 357.12 438.99 357.26 440.01
  Q 357.62 442.73 358.04 445.51
  Q 358.13 446.07 358.67 445.93
  Q 359.46 445.71 359.57 445.08
  Q 359.77 443.94 359.81 445.03
  Q 359.81 445.18 359.61 445.27
  A 0.10 0.10 0.0 0 0 359.58 445.43
  Q 360.39 446.39 360.08 447.95
  A 0.05 0.05 0.0 0 1 360.00 447.97
  Q 359.84 447.80 359.62 447.90
  Q 359.45 447.99 359.55 448.17
  Q 359.97 448.90 360.01 449.28
  Q 360.28 452.21 360.75 455.35
  C 360.95 456.63 360.59 458.10 361.07 459.24
  C 361.53 460.35 361.60 461.68 361.86 462.88
  C 362.27 464.73 363.53 465.54 363.20 467.69
  Q 363.13 468.15 363.27 468.60
  Q 364.04 470.98 364.71 473.32
  C 365.10 474.67 364.48 475.93 365.33 477.11
  Q 365.61 477.51 365.63 477.99
  Q 365.68 478.71 365.96 479.04
  Q 367.06 480.28 367.40 481.91
  A 1.09 1.07 -83.1 0 0 367.97 482.65
  Q 368.43 482.87 368.94 482.93
  Q 369.98 483.07 369.90 484.12
  Q 369.87 484.57 370.36 484.70
  A 0.70 0.70 0.0 0 1 370.88 485.45
  Q 370.64 487.89 371.21 490.06
  Q 371.25 539.93 371.18 589.85
  C 371.18 593.38 372.66 600.32 376.71 601.54
  Q 382.76 603.37 389.71 603.79
  C 396.64 604.21 401.78 606.86 404.73 613.46
  C 406.94 618.37 407.42 624.44 404.49 629.11
  C 400.72 635.13 394.91 636.79 387.64 636.94
  Q 371.38 637.29 363.59 636.25
  Q 359.09 635.66 352.79 633.41
  C 343.85 630.23 338.16 623.84 334.04 615.26
  C 332.46 611.97 331.65 607.66 330.66 603.89
  Q 329.55 599.70 329.46 592.37
  Q 329.08 562.08 329.40 538.76
  C 329.72 516.18 329.43 494.08 329.58 470.39
  Q 329.59 467.93 327.14 467.86
  Q 314.52 467.48 302.87 467.80
  A 1.08 1.08 0.0 0 0 302.13 469.63
  Q 306.92 474.60 310.11 481.64
  C 312.48 486.86 315.36 492.43 316.84 498.11
  C 317.87 502.06 319.21 505.73 319.92 509.87
  Q 320.84 515.22 321.77 520.86
  Q 323.21 529.56 321.51 539.24
  C 319.89 548.43 316.00 556.85 305.25 556.91
  Q 251.13 557.23 197.05 556.99
  Q 196.44 556.35 195.45 556.37
  Q 195.69 556.41 195.91 556.39
  Q 196.47 556.33 196.28 555.80
  Q 196.20 555.57 195.98 555.49
  Q 195.75 555.41 195.50 555.47
  Q 194.46 555.72 193.70 555.27
  Q 193.52 555.16 193.62 554.98
  Q 193.70 554.84 193.83 554.81
  Q 194.24 554.71 194.21 554.29
  Q 194.07 552.53 192.95 551.55
  Q 192.54 551.19 192.56 550.64
  Q 192.59 549.96 192.26 549.49
  Q 191.06 547.73 189.41 546.22
  A 2.23 2.23 0.0 0 1 188.87 543.70
  Q 189.29 542.72 188.78 541.88
  Q 188.54 541.47 188.66 541.02
  Q 188.96 539.90 188.12 539.14
  A 0.85 0.84 22.6 0 1 187.84 538.47
  C 187.97 536.24 186.76 535.72 185.78 534.01
  Q 185.34 533.24 185.32 532.33
  Q 185.29 531.03 185.09 529.79
  Q 184.99 529.20 185.36 528.72
  L 185.84 528.07
  Q 186.15 527.66 185.90 527.20
  L 184.67 524.99
  Q 184.33 524.39 183.68 524.64
  Q 183.08 524.87 182.86 524.32
  Q 182.74 524.00 182.42 523.89
  Q 182.00 523.74 181.56 523.66
  Q 181.16 523.59 181.55 523.46
  Q 181.73 523.41 181.86 523.26
  Q 182.14 522.93 181.71 522.90
  L 180.76 522.82
  Q 180.25 522.78 180.14 522.29
  Q 180.01 521.74 178.96 521.91
  Q 226.73 522.06 274.50 522.03
  Q 276.78 522.03 279.31 521.62
  A 0.90 0.90 0.0 0 0 280.04 520.49
  Q 279.05 516.82 278.61 512.88
  C 278.30 510.05 277.03 507.42 276.14 504.73
  C 271.27 489.97 258.95 477.74 244.47 472.97
  Q 241.94 472.14 239.43 471.21
  Q 239.09 470.84 239.11 470.24
  Q 239.11 469.92 238.83 469.77
  L 238.47 469.58
  Q 237.97 469.31 238.52 469.15
  Q 239.29 468.93 239.81 468.38
  A 0.62 0.61 56.0 0 0 239.93 467.74
  L 237.57 461.72
  Q 237.43 461.37 237.15 461.10
  L 235.90 459.91
  A 1.09 1.08 22.9 0 1 235.57 459.11
  Q 235.62 457.76 235.50 456.33
  Q 235.39 455.02 234.93 453.79
  Q 234.01 451.29 233.63 448.65
  A 2.11 2.04 -68.7 0 0 233.23 447.70
  Q 232.44 446.65 232.62 445.41
  Q 232.72 444.68 232.08 444.32
  Q 229.90 443.11 230.62 440.87
  A 1.49 1.46 -49.5 0 0 230.54 439.75
  Q 230.16 439.00 230.15 438.13
  Q 230.14 437.56 229.64 437.30
  Q 229.39 437.18 229.22 436.97
  Q 228.69 436.35 229.48 436.12
  L 233.12 435.09
  Q 242.05 435.00 246.00 436.01
  Q 253.18 437.83 258.51 439.38
  Q 273.84 443.84 286.47 453.86
  Q 288.24 455.26 290.13 454.59
  Q 291.14 454.24 290.74 453.25
  C 290.06 451.56 288.89 449.67 289.43 447.76
  C 291.24 441.50 295.56 435.18 302.24 435.08
  Q 314.91 434.90 327.96 435.01
  Q 329.37 435.03 329.46 433.62
  Q 329.63 430.83 329.60 428.18
  Q 329.40 411.04 329.56 395.08
  Q 329.64 386.48 334.55 380.79
  Q 338.09 376.69 343.98 374.89
  Z"
/>
<path fill="#2399c7" d="
  M 233.12 435.09
  L 229.48 436.12
  Q 228.69 436.35 229.22 436.97
  Q 229.39 437.18 229.64 437.30
  Q 230.14 437.56 230.15 438.13
  Q 230.16 439.00 230.54 439.75
  A 1.49 1.46 -49.5 0 1 230.62 440.87
  Q 229.90 443.11 232.08 444.32
  Q 232.72 444.68 232.62 445.41
  Q 232.44 446.65 233.23 447.70
  A 2.11 2.04 -68.7 0 1 233.63 448.65
  Q 234.01 451.29 234.93 453.79
  Q 235.39 455.02 235.50 456.33
  Q 235.62 457.76 235.57 459.11
  A 1.09 1.08 22.9 0 0 235.90 459.91
  L 237.15 461.10
  Q 237.43 461.37 237.57 461.72
  L 239.93 467.74
  A 0.62 0.61 56.0 0 1 239.81 468.38
  Q 239.29 468.93 238.52 469.15
  Q 237.97 469.31 238.47 469.58
  L 238.83 469.77
  Q 239.11 469.92 239.11 470.24
  Q 239.09 470.84 239.43 471.21
  C 229.54 469.54 217.33 469.60 207.47 472.69
  C 190.52 478.02 177.66 491.75 172.88 508.76
  Q 171.43 513.95 169.81 518.87
  Q 169.53 519.73 169.73 520.60
  Q 169.96 521.62 171.01 521.65
  L 178.96 521.91
  Q 180.01 521.74 180.14 522.29
  Q 180.25 522.78 180.76 522.82
  L 181.71 522.90
  Q 182.14 522.93 181.86 523.26
  Q 181.73 523.41 181.55 523.46
  Q 181.16 523.59 181.56 523.66
  Q 182.00 523.74 182.42 523.89
  Q 182.74 524.00 182.86 524.32
  Q 183.08 524.87 183.68 524.64
  Q 184.33 524.39 184.67 524.99
  L 185.90 527.20
  Q 186.15 527.66 185.84 528.07
  L 185.36 528.72
  Q 184.99 529.20 185.09 529.79
  Q 185.29 531.03 185.32 532.33
  Q 185.34 533.24 185.78 534.01
  C 186.76 535.72 187.97 536.24 187.84 538.47
  A 0.85 0.84 22.6 0 0 188.12 539.14
  Q 188.96 539.90 188.66 541.02
  Q 188.54 541.47 188.78 541.88
  Q 189.29 542.72 188.87 543.70
  A 2.23 2.23 0.0 0 0 189.41 546.22
  Q 191.06 547.73 192.26 549.49
  Q 192.59 549.96 192.56 550.64
  Q 192.54 551.19 192.95 551.55
  Q 194.07 552.53 194.21 554.29
  Q 194.24 554.71 193.83 554.81
  Q 193.70 554.84 193.62 554.98
  Q 193.52 555.16 193.70 555.27
  Q 194.46 555.72 195.50 555.47
  Q 195.75 555.41 195.98 555.49
  Q 196.20 555.57 196.28 555.80
  Q 196.47 556.33 195.91 556.39
  Q 195.69 556.41 195.45 556.37
  Q 196.44 556.35 197.05 556.99
  L 171.68 556.99
  A 1.03 1.03 0.0 0 0 170.81 558.56
  C 171.37 559.48 172.03 560.04 172.18 561.18
  Q 172.68 565.26 175.30 570.61
  Q 186.29 592.99 207.98 599.75
  Q 215.26 602.02 224.12 602.35
  Q 233.43 602.71 240.66 601.71
  Q 247.76 600.73 255.81 596.97
  Q 261.19 594.46 266.45 589.92
  Q 272.87 584.40 280.18 578.59
  Q 283.29 576.12 286.17 574.37
  C 290.03 572.03 297.43 572.13 301.82 574.38
  Q 309.49 578.31 312.52 584.45
  C 314.88 589.24 313.87 595.51 310.89 600.20
  Q 306.35 607.31 300.01 612.44
  Q 282.44 626.63 263.01 632.64
  C 256.29 634.72 249.72 636.49 242.70 637.00
  Q 225.63 638.25 208.03 636.77
  Q 203.57 636.40 199.35 635.23
  Q 195.05 634.05 191.38 632.91
  Q 183.02 630.33 173.79 625.21
  Q 162.92 619.18 152.66 608.36
  Q 149.41 604.93 147.02 601.16
  C 144.90 597.83 142.60 594.98 140.72 591.42
  Q 134.97 580.53 131.94 568.67
  C 131.00 565.01 130.77 561.23 129.96 557.41
  Q 126.96 543.08 128.42 526.08
  C 128.84 521.20 130.33 516.31 130.87 511.59
  Q 131.36 507.25 132.02 504.89
  Q 136.97 487.18 145.17 474.93
  Q 147.13 471.99 155.51 461.50
  Q 157.08 459.54 165.35 453.09
  Q 171.44 448.35 175.99 446.03
  C 181.98 442.98 189.25 439.62 196.15 438.15
  C 199.92 437.35 203.46 436.06 207.35 435.67
  Q 220.05 434.42 233.12 435.09
  Z"
/>
<path fill="#bb6a5f" d="
  M 671.73 442.49
  L 671.94 447.56
  Q 671.97 448.12 672.53 448.12
  L 673.04 448.12
  Q 673.44 448.12 673.61 448.49
  L 675.59 453.05
  Q 675.78 453.48 675.62 453.91
  L 675.26 454.95
  Q 675.09 455.43 675.55 455.67
  L 676.57 456.19
  Q 677.03 456.42 677.13 456.92
  Q 677.60 459.29 679.02 461.95
  Q 680.22 464.19 679.24 466.16
  Q 679.05 466.55 679.23 466.94
  L 681.32 471.49
  Q 681.52 471.92 681.31 472.35
  L 679.11 476.69
  Q 678.91 477.08 679.05 477.50
  L 679.65 479.35
  Q 679.82 479.87 680.36 479.88
  L 683.58 479.97
  Q 684.09 479.99 684.29 480.45
  Q 685.21 482.48 683.68 484.27
  Q 683.37 484.64 683.65 485.04
  Q 684.50 486.27 685.70 486.95
  Q 686.19 487.23 685.92 487.72
  L 685.15 489.10
  Q 684.87 489.61 684.99 490.19
  L 685.54 492.87
  Q 685.76 493.95 686.36 493.02
  L 686.58 492.68
  Q 686.97 492.07 687.44 492.62
  Q 688.47 493.82 688.94 495.68
  Q 689.09 496.29 689.39 495.74
  L 689.69 495.20
  Q 689.90 494.81 690.34 494.90
  Q 692.63 495.34 692.73 497.94
  Q 692.76 498.67 693.31 498.20
  Q 694.06 497.58 695.03 497.35
  Q 695.53 497.23 695.96 497.52
  Q 697.92 498.83 698.18 500.92
  A 1.12 1.08 -78.0 0 0 698.66 501.69
  Q 699.01 501.92 699.37 501.68
  Q 700.04 501.23 700.23 502.01
  Q 700.56 503.34 701.98 503.77
  Q 702.50 503.92 702.75 504.40
  Q 704.38 507.45 705.01 510.31
  A 2.02 2.01 -5.5 0 0 706.93 511.88
  L 710.76 511.96
  Q 710.78 573.42 711.05 609.50
  Q 711.09 614.91 710.81 620.59
  C 710.37 629.68 704.12 636.18 695.00 637.11
  C 690.11 637.61 683.04 637.66 678.81 634.87
  C 672.04 630.39 671.24 623.22 671.23 615.66
  Q 671.16 573.10 671.30 533.24
  Q 671.35 518.64 669.50 505.62
  Q 668.36 497.54 665.74 492.78
  Q 659.06 480.67 648.10 474.88
  Q 643.26 472.32 634.83 470.59
  Q 637.13 467.27 634.24 463.64
  Q 633.94 463.26 633.91 462.77
  Q 633.81 461.25 632.71 460.29
  C 631.47 459.19 631.19 457.32 631.13 455.73
  Q 631.00 451.83 628.59 449.12
  A 0.67 0.67 0.0 0 1 629.05 448.00
  L 631.13 447.88
  Q 631.53 447.85 631.24 447.57
  L 629.30 445.67
  Q 628.93 445.32 628.95 444.80
  Q 629.08 440.76 626.67 437.03
  Q 626.42 436.66 626.86 436.74
  Q 626.95 436.75 627.03 436.71
  Q 627.79 436.29 626.94 436.06
  Q 626.81 436.03 626.83 435.90
  Q 626.91 435.37 626.32 435.46
  Q 625.38 435.62 624.92 435.02
  Q 634.40 434.49 643.76 435.23
  Q 650.78 435.80 656.98 437.96
  Q 663.10 440.11 669.52 443.20
  Q 670.94 443.88 671.73 442.49
  Z"
/>
<path fill="#7d7296" d="
  M 499.11 435.52
  Q 498.91 436.76 499.79 436.98
  Q 500.26 437.09 500.26 437.58
  Q 500.27 438.11 499.98 438.58
  Q 499.72 439.02 499.98 439.47
  Q 501.63 442.28 502.21 445.89
  A 2.15 2.01 -69.6 0 0 502.61 446.85
  Q 503.27 447.72 502.48 448.35
  Q 502.08 448.67 502.24 449.15
  Q 503.55 453.14 506.31 456.08
  Q 506.49 456.27 506.56 456.51
  Q 506.60 456.65 506.61 456.80
  Q 506.63 457.03 506.73 457.24
  L 508.79 461.80
  A 1.26 1.21 4.0 0 0 509.29 462.35
  Q 512.48 464.21 514.01 468.69
  Q 514.11 468.99 513.96 469.27
  L 513.80 469.56
  Q 513.66 469.83 513.87 470.05
  Q 515.38 471.63 516.07 473.74
  Q 516.23 474.25 516.03 474.74
  Q 515.78 475.32 516.39 475.48
  Q 518.36 476.02 518.44 478.53
  Q 511.68 474.51 508.51 473.78
  C 504.52 472.87 500.44 471.37 496.41 470.89
  Q 478.18 468.70 462.05 474.33
  Q 452.45 477.69 443.02 481.72
  Q 438.15 483.80 433.59 481.89
  Q 419.18 475.87 421.88 462.20
  C 423.34 454.82 430.89 448.87 437.25 445.43
  Q 444.72 441.41 451.44 439.41
  Q 456.03 438.04 461.00 436.88
  Q 465.75 435.77 470.84 435.46
  Q 484.90 434.62 499.11 435.52
  Z"
/>
<path fill="#996c80" d="
  M 624.92 435.02
  Q 625.38 435.62 626.32 435.46
  Q 626.91 435.37 626.83 435.90
  Q 626.81 436.03 626.94 436.06
  Q 627.79 436.29 627.03 436.71
  Q 626.95 436.75 626.86 436.74
  Q 626.42 436.66 626.67 437.03
  Q 629.08 440.76 628.95 444.80
  Q 628.93 445.32 629.30 445.67
  L 631.24 447.57
  Q 631.53 447.85 631.13 447.88
  L 629.05 448.00
  A 0.67 0.67 0.0 0 0 628.59 449.12
  Q 631.00 451.83 631.13 455.73
  C 631.19 457.32 631.47 459.19 632.71 460.29
  Q 633.81 461.25 633.91 462.77
  Q 633.94 463.26 634.24 463.64
  Q 637.13 467.27 634.83 470.59
  Q 622.97 469.16 611.54 473.57
  Q 596.23 479.48 589.69 494.22
  C 587.33 499.55 585.90 504.91 585.26 511.10
  Q 584.49 518.40 584.49 521.25
  Q 584.51 547.48 584.41 573.71
  L 584.25 577.62
  A 0.27 0.24 -23.1 0 1 584.16 577.81
  Q 583.99 577.95 583.87 577.79
  Q 583.56 577.40 583.60 577.90
  Q 583.68 579.00 583.27 580.03
  Q 582.66 581.56 582.42 579.93
  Q 582.36 579.50 582.62 579.06
  Q 582.67 578.98 582.66 578.98
  L 582.49 578.80
  Q 582.04 578.31 582.07 578.97
  Q 582.23 582.29 581.61 585.52
  Q 581.58 585.70 581.40 585.68
  Q 581.35 585.68 581.31 585.64
  Q 581.06 585.33 580.85 585.70
  Q 579.89 587.36 579.64 589.22
  Q 579.44 590.75 579.04 591.76
  Q 578.55 592.99 578.33 594.31
  Q 578.22 594.95 578.02 594.34
  Q 577.90 593.97 578.06 593.64
  A 0.76 0.74 37.3 0 0 577.94 592.81
  L 576.58 591.26
  A 1.36 1.35 -71.4 0 1 576.26 590.61
  Q 575.81 588.06 574.55 585.45
  Q 574.36 585.04 574.16 585.45
  Q 574.03 585.72 574.21 585.91
  Q 574.61 586.30 574.14 586.61
  Q 573.79 586.83 573.65 587.19
  Q 573.37 587.90 573.19 587.16
  Q 572.32 583.75 570.81 580.81
  C 569.72 578.69 569.66 576.42 568.09 574.49
  Q 566.94 573.09 565.12 572.41
  A 1.79 1.78 -73.1 0 1 564.01 570.32
  L 564.97 566.30
  Q 565.13 565.65 564.55 565.32
  Q 561.30 563.50 563.07 560.46
  A 2.30 2.29 -47.9 0 0 562.95 557.95
  Q 560.87 555.08 561.80 551.69
  Q 561.93 551.23 562.10 551.67
  Q 562.55 552.85 563.67 553.60
  Q 564.28 554.00 563.96 553.34
  Q 563.21 551.82 562.82 550.18
  Q 562.64 549.44 562.34 548.77
  Q 561.88 547.73 562.43 546.70
  Q 564.81 542.27 561.48 539.11
  Q 561.08 538.73 561.06 538.19
  Q 560.98 535.65 558.90 535.37
  Q 558.31 535.29 558.54 534.75
  L 559.01 533.65
  Q 559.21 533.17 559.11 532.67
  Q 557.82 526.35 554.99 519.87
  Q 554.65 519.11 554.67 518.30
  Q 554.68 517.76 554.32 517.36
  Q 552.16 514.94 552.05 512.00
  A 0.04 0.04 0.0 0 0 551.98 511.98
  Q 551.84 512.20 551.62 512.06
  Q 551.49 511.97 551.42 511.83
  Q 550.51 509.93 549.18 508.41
  Q 548.98 508.18 548.90 508.48
  L 548.38 510.32
  Q 548.17 511.07 547.61 510.52
  Q 547.13 510.03 545.87 511.13
  A 1.60 1.60 0.0 0 0 545.61 513.25
  Q 546.07 513.91 546.30 514.66
  Q 546.46 515.18 545.94 515.02
  Q 543.85 514.36 544.05 512.11
  Q 544.06 511.97 543.93 511.94
  Q 543.77 511.90 543.61 511.91
  Q 543.35 511.93 543.22 511.70
  L 541.40 508.54
  Q 541.13 508.07 541.10 508.62
  Q 541.09 508.75 541.11 508.89
  A 0.04 0.03 -51.6 0 0 541.18 508.88
  Q 541.17 508.22 541.05 507.59
  Q 541.03 507.50 540.95 507.48
  Q 540.71 507.43 540.74 507.56
  Q 540.79 507.95 540.52 507.67
  Q 539.29 506.40 540.46 505.37
  Q 540.54 505.30 540.48 505.22
  Q 540.42 505.16 540.34 505.17
  Q 539.89 505.22 540.32 505.09
  Q 540.44 505.05 540.55 504.98
  Q 540.57 504.97 540.57 504.95
  Q 540.00 502.50 539.12 500.36
  Q 538.76 499.48 538.62 498.54
  Q 538.58 498.26 538.46 498.01
  Q 538.30 497.69 537.98 497.53
  Q 537.46 497.27 537.32 497.82
  Q 537.18 498.37 536.85 498.82
  Q 536.77 498.93 536.66 498.84
  Q 536.50 498.70 536.60 498.49
  A 0.25 0.24 11.0 0 0 536.36 498.14
  Q 535.66 498.20 535.00 497.78
  Q 534.58 497.51 534.57 497.01
  Q 534.57 496.22 534.72 495.45
  Q 534.77 495.22 534.58 495.07
  Q 534.53 495.03 534.49 495.09
  Q 534.07 495.67 533.94 494.91
  Q 533.81 494.17 533.60 493.26
  Q 533.56 493.09 533.39 493.13
  Q 533.23 493.18 533.24 493.31
  Q 533.25 493.70 532.96 493.44
  Q 532.29 492.84 532.22 491.92
  A 0.92 0.89 -78.7 0 0 531.75 491.19
  Q 530.12 490.33 529.73 488.25
  Q 529.64 487.83 529.28 487.67
  Q 528.87 487.49 528.20 487.76
  L 518.44 478.53
  Q 518.36 476.02 516.39 475.48
  Q 515.78 475.32 516.03 474.74
  Q 516.23 474.25 516.07 473.74
  Q 515.38 471.63 513.87 470.05
  Q 513.66 469.83 513.80 469.56
  L 513.96 469.27
  Q 514.11 468.99 514.01 468.69
  Q 512.48 464.21 509.29 462.35
  A 1.26 1.21 4.0 0 1 508.79 461.80
  L 506.73 457.24
  Q 506.63 457.03 506.61 456.80
  Q 506.60 456.65 506.56 456.51
  Q 506.49 456.27 506.31 456.08
  Q 503.55 453.14 502.24 449.15
  Q 502.08 448.67 502.48 448.35
  Q 503.27 447.72 502.61 446.85
  A 2.15 2.01 -69.6 0 1 502.21 445.89
  Q 501.63 442.28 499.98 439.47
  Q 499.72 439.02 499.98 438.58
  Q 500.27 438.11 500.26 437.58
  Q 500.26 437.09 499.79 436.98
  Q 498.91 436.76 499.11 435.52
  Q 503.62 435.70 504.76 435.98
  C 510.44 437.34 516.34 438.31 521.75 440.30
  C 528.61 442.82 535.21 445.47 540.91 449.61
  C 543.24 451.31 545.75 452.56 548.31 453.81
  A 1.10 1.10 0.0 0 0 549.87 453.07
  Q 550.34 451.03 550.38 448.86
  C 550.46 444.82 553.26 440.82 556.69 439.16
  C 560.49 437.32 566.51 435.17 570.84 436.68
  Q 574.10 437.81 577.05 439.10
  C 581.70 441.12 584.03 446.84 586.45 450.91
  A 0.71 0.71 0.0 0 0 587.59 451.02
  Q 594.54 443.16 604.31 439.33
  Q 608.12 437.84 613.75 436.09
  Q 617.47 434.94 624.92 435.02
  Z"
/>
<path fill="#bf724e" d="
  M 835.71 435.28
  Q 835.18 435.77 834.63 436.18
  Q 833.86 436.76 834.81 436.61
  Q 835.04 436.58 835.25 436.68
  Q 835.69 436.89 835.71 437.39
  Q 835.95 443.53 839.66 448.34
  Q 839.77 448.49 839.78 448.67
  Q 839.79 448.80 839.71 448.92
  Q 839.61 449.06 839.65 449.23
  L 841.27 456.15
  Q 841.40 456.68 840.94 456.97
  Q 840.26 457.39 839.47 457.37
  Q 838.66 457.35 839.00 458.09
  Q 839.16 458.42 839.05 458.77
  Q 838.82 459.49 839.57 459.39
  Q 840.44 459.28 840.65 460.11
  Q 840.76 460.54 840.38 460.79
  Q 839.83 461.14 839.85 461.76
  Q 839.92 464.07 840.72 467.17
  Q 840.86 467.69 840.48 468.09
  Q 839.91 468.68 840.13 469.59
  Q 840.35 470.49 841.23 470.61
  Q 841.54 470.65 841.34 470.89
  L 840.86 471.48
  A 0.07 0.05 -46.6 0 0 840.85 471.55
  Q 841.08 471.89 841.42 472.13
  Q 841.46 472.16 841.51 472.14
  Q 841.64 472.09 841.73 472.00
  Q 841.93 471.77 842.08 472.04
  Q 842.17 472.20 842.09 472.35
  Q 841.82 472.83 842.39 472.80
  Q 843.73 472.73 843.40 473.57
  C 839.13 472.22 835.13 470.84 830.68 470.48
  Q 820.11 469.63 811.89 471.29
  Q 784.79 476.75 773.67 501.54
  C 771.28 506.87 770.06 512.61 768.48 518.14
  Q 768.20 519.13 768.26 520.31
  Q 768.32 521.66 769.67 521.67
  L 780.57 521.76
  Q 779.12 522.26 777.83 522.80
  Q 777.42 522.98 777.86 522.87
  Q 778.01 522.83 778.16 522.87
  Q 778.44 522.92 778.48 523.20
  Q 778.86 525.41 779.88 527.66
  Q 780.13 528.23 780.11 527.61
  Q 780.11 527.45 780.26 527.34
  Q 780.54 527.12 780.80 527.37
  Q 781.58 528.15 781.65 528.49
  Q 782.08 530.54 782.83 532.26
  Q 783.15 532.99 783.17 533.80
  Q 783.20 534.60 783.16 535.36
  Q 783.14 535.95 783.41 535.42
  Q 783.53 535.17 784.11 535.77
  A 0.68 0.62 -70.9 0 1 784.28 536.16
  Q 785.04 545.06 787.40 553.77
  Q 787.58 554.42 787.03 554.81
  Q 786.64 555.10 786.85 555.57
  Q 786.94 555.78 786.74 555.88
  Q 786.57 555.97 786.48 555.90
  Q 786.40 555.84 786.49 555.82
  Q 786.79 555.76 787.07 555.84
  Q 788.16 556.14 787.04 556.30
  Q 786.26 556.41 786.26 556.81
  L 771.13 557.06
  Q 769.27 557.09 769.58 558.93
  C 770.77 566.09 773.66 572.21 777.74 578.20
  C 781.09 583.13 783.08 585.95 787.41 589.21
  Q 786.77 590.31 788.51 591.44
  Q 789.24 591.92 788.38 592.10
  Q 788.18 592.14 787.95 592.13
  Q 787.68 592.12 787.64 591.87
  Q 787.49 590.94 787.23 591.85
  C 786.53 594.35 785.76 595.54 787.14 598.30
  Q 788.05 600.12 786.30 600.79
  Q 785.87 600.95 785.74 601.40
  Q 785.00 604.01 784.63 606.66
  Q 784.07 610.61 782.66 614.42
  Q 782.50 614.86 782.93 614.68
  Q 783.07 614.62 783.21 614.57
  Q 783.90 614.34 783.89 615.06
  C 783.86 616.73 785.37 617.32 784.14 619.17
  Q 783.85 619.61 783.88 620.13
  L 784.64 630.96
  Q 762.04 622.31 747.43 603.82
  Q 735.55 588.79 730.51 571.06
  C 728.26 563.14 726.52 555.19 726.28 546.54
  Q 725.85 531.22 726.62 517.13
  Q 726.73 515.17 727.20 513.17
  C 729.39 503.74 731.82 494.02 736.27 485.50
  C 743.36 471.92 752.86 459.52 764.99 451.46
  Q 768.80 448.93 772.53 446.74
  C 778.68 443.12 786.93 439.52 794.41 437.94
  C 797.83 437.21 801.13 435.99 804.60 435.70
  Q 820.12 434.40 835.71 435.28
  Z"
/>
<path fill="#e46b1e" d="
  M 835.71 435.28
  C 838.58 435.48 841.54 435.66 844.27 436.36
  C 849.36 437.65 854.28 438.53 859.15 440.35
  Q 871.96 445.14 880.90 451.43
  Q 887.82 456.31 895.67 464.79
  Q 901.58 471.17 906.05 479.23
  Q 910.65 487.53 913.75 496.60
  C 915.33 501.25 915.52 505.82 916.74 510.46
  C 919.06 519.28 918.54 529.31 918.34 538.50
  Q 918.18 546.04 913.78 552.07
  C 911.11 555.74 905.62 556.88 901.25 556.89
  Q 848.53 557.00 794.75 556.93
  Q 790.53 556.92 786.26 556.81
  Q 786.26 556.41 787.04 556.30
  Q 788.16 556.14 787.07 555.84
  Q 786.79 555.76 786.49 555.82
  Q 786.40 555.84 786.48 555.90
  Q 786.57 555.97 786.74 555.88
  Q 786.94 555.78 786.85 555.57
  Q 786.64 555.10 787.03 554.81
  Q 787.58 554.42 787.40 553.77
  Q 785.04 545.06 784.28 536.16
  A 0.68 0.62 -70.9 0 0 784.11 535.77
  Q 783.53 535.17 783.41 535.42
  Q 783.14 535.95 783.16 535.36
  Q 783.20 534.60 783.17 533.80
  Q 783.15 532.99 782.83 532.26
  Q 782.08 530.54 781.65 528.49
  Q 781.58 528.15 780.80 527.37
  Q 780.54 527.12 780.26 527.34
  Q 780.11 527.45 780.11 527.61
  Q 780.13 528.23 779.88 527.66
  Q 778.86 525.41 778.48 523.20
  Q 778.44 522.92 778.16 522.87
  Q 778.01 522.83 777.86 522.87
  Q 777.42 522.98 777.83 522.80
  Q 779.12 522.26 780.57 521.76
  L 875.64 521.72
  A 1.23 1.22 2.0 0 0 876.87 520.59
  C 877.32 514.24 875.48 509.92 873.66 504.23
  C 870.32 493.82 862.49 484.06 854.06 478.41
  Q 850.35 475.92 843.40 473.57
  Q 843.73 472.73 842.39 472.80
  Q 841.82 472.83 842.09 472.35
  Q 842.17 472.20 842.08 472.04
  Q 841.93 471.77 841.73 472.00
  Q 841.64 472.09 841.51 472.14
  Q 841.46 472.16 841.42 472.13
  Q 841.08 471.89 840.85 471.55
  A 0.07 0.05 -46.6 0 1 840.86 471.48
  L 841.34 470.89
  Q 841.54 470.65 841.23 470.61
  Q 840.35 470.49 840.13 469.59
  Q 839.91 468.68 840.48 468.09
  Q 840.86 467.69 840.72 467.17
  Q 839.92 464.07 839.85 461.76
  Q 839.83 461.14 840.38 460.79
  Q 840.76 460.54 840.65 460.11
  Q 840.44 459.28 839.57 459.39
  Q 838.82 459.49 839.05 458.77
  Q 839.16 458.42 839.00 458.09
  Q 838.66 457.35 839.47 457.37
  Q 840.26 457.39 840.94 456.97
  Q 841.40 456.68 841.27 456.15
  L 839.65 449.23
  Q 839.61 449.06 839.71 448.92
  Q 839.79 448.80 839.78 448.67
  Q 839.77 448.49 839.66 448.34
  Q 835.95 443.53 835.71 437.39
  Q 835.69 436.89 835.25 436.68
  Q 835.04 436.58 834.81 436.61
  Q 833.86 436.76 834.63 436.18
  Q 835.18 435.77 835.71 435.28
  Z"
/>
<path fill="#867b83" d="
  M 528.20 487.76
  Q 528.87 487.49 529.28 487.67
  Q 529.64 487.83 529.73 488.25
  Q 530.12 490.33 531.75 491.19
  A 0.92 0.89 -78.7 0 1 532.22 491.92
  Q 532.29 492.84 532.96 493.44
  Q 533.25 493.70 533.24 493.31
  Q 533.23 493.18 533.39 493.13
  Q 533.56 493.09 533.60 493.26
  Q 533.81 494.17 533.94 494.91
  Q 534.07 495.67 534.49 495.09
  Q 534.53 495.03 534.58 495.07
  Q 534.77 495.22 534.72 495.45
  Q 534.57 496.22 534.57 497.01
  Q 534.58 497.51 535.00 497.78
  Q 535.66 498.20 536.36 498.14
  A 0.25 0.24 11.0 0 1 536.60 498.49
  Q 536.50 498.70 536.66 498.84
  Q 536.77 498.93 536.85 498.82
  Q 537.18 498.37 537.32 497.82
  Q 537.46 497.27 537.98 497.53
  Q 538.30 497.69 538.46 498.01
  Q 538.58 498.26 538.62 498.54
  Q 538.76 499.48 539.12 500.36
  Q 540.00 502.50 540.57 504.95
  Q 540.57 504.97 540.55 504.98
  Q 540.44 505.05 540.32 505.09
  Q 539.89 505.22 540.34 505.17
  Q 540.42 505.16 540.48 505.22
  Q 540.54 505.30 540.46 505.37
  Q 539.29 506.40 540.52 507.67
  Q 540.79 507.95 540.74 507.56
  Q 540.71 507.43 540.95 507.48
  Q 541.03 507.50 541.05 507.59
  Q 541.17 508.22 541.18 508.88
  A 0.04 0.03 -51.6 0 1 541.11 508.89
  Q 541.09 508.75 541.10 508.62
  Q 541.13 508.07 541.40 508.54
  L 543.22 511.70
  Q 543.35 511.93 543.61 511.91
  Q 543.77 511.90 543.93 511.94
  Q 544.06 511.97 544.05 512.11
  Q 543.85 514.36 545.94 515.02
  Q 546.46 515.18 546.30 514.66
  Q 546.07 513.91 545.61 513.25
  A 1.60 1.60 0.0 0 1 545.87 511.13
  Q 547.13 510.03 547.61 510.52
  Q 548.17 511.07 548.38 510.32
  L 548.90 508.48
  Q 548.98 508.18 549.18 508.41
  Q 550.51 509.93 551.42 511.83
  Q 551.49 511.97 551.62 512.06
  Q 551.84 512.20 551.98 511.98
  A 0.04 0.04 0.0 0 1 552.05 512.00
  Q 552.16 514.94 554.32 517.36
  Q 554.68 517.76 554.67 518.30
  Q 554.65 519.11 554.99 519.87
  Q 557.82 526.35 559.11 532.67
  Q 559.21 533.17 559.01 533.65
  L 558.54 534.75
  Q 558.31 535.29 558.90 535.37
  Q 560.98 535.65 561.06 538.19
  Q 561.08 538.73 561.48 539.11
  Q 564.81 542.27 562.43 546.70
  Q 561.88 547.73 562.34 548.77
  Q 562.64 549.44 562.82 550.18
  Q 563.21 551.82 563.96 553.34
  Q 564.28 554.00 563.67 553.60
  Q 562.55 552.85 562.10 551.67
  Q 561.93 551.23 561.80 551.69
  Q 560.87 555.08 562.95 557.95
  A 2.30 2.29 -47.9 0 1 563.07 560.46
  Q 561.30 563.50 564.55 565.32
  Q 565.13 565.65 564.97 566.30
  L 564.01 570.32
  A 1.79 1.78 -73.1 0 0 565.12 572.41
  Q 566.94 573.09 568.09 574.49
  C 569.66 576.42 569.72 578.69 570.81 580.81
  Q 572.32 583.75 573.19 587.16
  Q 573.37 587.90 573.65 587.19
  Q 573.79 586.83 574.14 586.61
  Q 574.61 586.30 574.21 585.91
  Q 574.03 585.72 574.16 585.45
  Q 574.36 585.04 574.55 585.45
  Q 575.81 588.06 576.26 590.61
  A 1.36 1.35 -71.4 0 0 576.58 591.26
  L 577.94 592.81
  A 0.76 0.74 37.3 0 1 578.06 593.64
  Q 577.90 593.97 578.02 594.34
  Q 578.22 594.95 578.33 594.31
  Q 578.55 592.99 579.04 591.76
  Q 579.44 590.75 579.64 589.22
  Q 579.89 587.36 580.85 585.70
  Q 581.06 585.33 581.31 585.64
  Q 581.35 585.68 581.40 585.68
  Q 581.58 585.70 581.61 585.52
  Q 582.23 582.29 582.07 578.97
  Q 582.04 578.31 582.49 578.80
  L 582.66 578.98
  Q 582.67 578.98 582.62 579.06
  Q 582.36 579.50 582.42 579.93
  Q 582.66 581.56 583.27 580.03
  Q 583.68 579.00 583.60 577.90
  Q 583.56 577.40 583.87 577.79
  Q 583.99 577.95 584.16 577.81
  A 0.27 0.24 -23.1 0 0 584.25 577.62
  L 584.41 573.71
  Q 584.38 592.36 584.24 611.00
  C 584.19 618.45 583.84 627.18 578.76 632.43
  C 573.59 637.76 566.44 637.68 559.43 636.94
  Q 556.05 636.58 553.79 635.11
  Q 543.87 628.67 543.81 616.76
  Q 543.80 615.54 543.55 615.18
  Q 542.78 614.07 541.76 614.97
  L 530.76 624.69
  Q 530.91 623.36 531.81 622.46
  Q 532.13 622.14 532.13 621.68
  L 532.13 619.02
  Q 532.13 618.56 531.70 618.72
  Q 531.47 618.81 531.42 618.49
  Q 531.04 615.83 530.74 612.61
  Q 530.69 612.12 530.36 611.75
  Q 529.39 610.67 528.95 609.35
  Q 528.22 607.16 527.96 606.54
  Q 527.41 605.22 526.85 603.85
  Q 526.54 603.09 526.62 602.07
  Q 526.68 601.22 526.64 600.23
  A 1.06 1.04 -77.3 0 0 526.10 599.36
  Q 525.59 599.07 525.76 598.56
  Q 525.92 598.05 525.75 597.55
  L 523.86 591.98
  Q 523.67 591.43 523.23 591.06
  Q 522.71 590.63 522.35 590.04
  Q 522.10 589.62 522.11 589.13
  Q 522.15 588.05 521.15 586.77
  Q 522.26 584.37 523.32 582.15
  Q 524.86 578.91 525.14 574.99
  C 525.69 567.43 526.21 558.88 523.13 552.12
  Q 518.22 541.34 508.18 535.84
  Q 495.91 529.13 480.28 531.96
  Q 480.77 530.71 482.22 530.65
  Q 483.08 530.62 482.40 530.08
  Q 481.42 529.31 480.62 528.12
  Q 480.59 528.06 480.65 528.04
  Q 480.69 528.02 480.73 528.01
  Q 480.89 527.95 480.80 527.79
  Q 480.07 526.42 480.04 525.69
  Q 479.78 519.57 479.91 513.24
  Q 479.96 510.53 477.89 508.97
  Q 477.53 508.69 477.55 508.23
  L 477.75 503.60
  Q 477.77 503.03 477.28 502.74
  Q 476.47 502.25 476.72 501.29
  A 1.25 1.25 0.0 0 0 475.20 499.76
  Q 473.67 500.16 473.73 498.45
  C 482.82 497.23 492.14 497.93 501.42 499.12
  C 511.53 500.43 522.12 504.92 530.50 510.35
  Q 532.65 511.74 534.71 513.82
  Q 538.33 517.47 538.08 512.34
  C 537.84 507.12 535.90 502.84 534.08 498.07
  Q 531.93 492.40 528.20 487.76
  Z"
/>
<path fill="#6a8395" d="
  M 473.73 498.45
  Q 473.67 500.16 475.20 499.76
  A 1.25 1.25 0.0 0 1 476.72 501.29
  Q 476.47 502.25 477.28 502.74
  Q 477.77 503.03 477.75 503.60
  L 477.55 508.23
  Q 477.53 508.69 477.89 508.97
  Q 479.96 510.53 479.91 513.24
  Q 479.78 519.57 480.04 525.69
  Q 480.07 526.42 480.80 527.79
  Q 480.89 527.95 480.73 528.01
  Q 480.69 528.02 480.65 528.04
  Q 480.59 528.06 480.62 528.12
  Q 481.42 529.31 482.40 530.08
  Q 483.08 530.62 482.22 530.65
  Q 480.77 530.71 480.28 531.96
  C 465.39 535.52 453.43 542.99 450.76 559.21
  Q 449.14 569.11 451.09 578.42
  C 452.91 587.08 460.25 595.13 467.53 598.90
  Q 472.23 601.34 478.09 602.55
  Q 484.86 603.96 489.65 603.63
  Q 501.38 602.81 511.93 596.71
  Q 516.50 594.07 521.15 586.77
  Q 522.15 588.05 522.11 589.13
  Q 522.10 589.62 522.35 590.04
  Q 522.71 590.63 523.23 591.06
  Q 523.67 591.43 523.86 591.98
  L 525.75 597.55
  Q 525.92 598.05 525.76 598.56
  Q 525.59 599.07 526.10 599.36
  A 1.06 1.04 -77.3 0 1 526.64 600.23
  Q 526.68 601.22 526.62 602.07
  Q 526.54 603.09 526.85 603.85
  Q 527.41 605.22 527.96 606.54
  Q 528.22 607.16 528.95 609.35
  Q 529.39 610.67 530.36 611.75
  Q 530.69 612.12 530.74 612.61
  Q 531.04 615.83 531.42 618.49
  Q 531.47 618.81 531.70 618.72
  Q 532.13 618.56 532.13 619.02
  L 532.13 621.68
  Q 532.13 622.14 531.81 622.46
  Q 530.91 623.36 530.76 624.69
  C 520.23 632.00 507.89 636.90 495.06 637.26
  Q 486.25 637.51 476.10 637.22
  Q 466.93 636.96 458.32 634.08
  Q 447.17 630.36 440.17 625.85
  Q 423.86 615.34 415.15 598.51
  C 413.12 594.59 412.22 590.50 410.88 586.33
  Q 410.11 583.93 409.73 581.02
  Q 407.92 567.13 409.71 553.25
  Q 410.19 549.53 411.27 546.38
  C 412.34 543.27 413.01 540.24 414.37 537.25
  Q 424.71 514.45 448.99 504.23
  Q 461.46 498.97 473.73 498.45
  Z"
/>
<path fill="#2399c7" d="
  M 113.33 534.36
  C 110.78 539.84 108.01 545.72 104.26 550.24
  C 101.78 553.22 99.64 556.72 97.04 559.49
  C 85.90 571.37 67.55 582.69 50.26 579.79
  C 47.64 579.35 45.69 578.65 43.91 576.53
  C 41.06 573.15 39.67 569.08 39.70 564.57
  Q 39.75 557.07 39.50 550.50
  C 39.42 548.42 40.04 545.14 42.63 544.74
  C 57.69 542.46 69.19 537.37 77.20 524.85
  Q 80.73 519.34 84.83 513.71
  C 86.70 511.13 89.18 509.01 92.52 508.70
  Q 96.52 508.34 100.29 508.52
  C 105.27 508.77 108.72 512.81 111.67 516.34
  Q 118.11 524.05 113.33 534.36
  Z"
/>
<path fill="#d2792d" d="
  M 784.64 630.96
  L 783.88 620.13
  Q 783.85 619.61 784.14 619.17
  C 785.37 617.32 783.86 616.73 783.89 615.06
  Q 783.90 614.34 783.21 614.57
  Q 783.07 614.62 782.93 614.68
  Q 782.50 614.86 782.66 614.42
  Q 784.07 610.61 784.63 606.66
  Q 785.00 604.01 785.74 601.40
  Q 785.87 600.95 786.30 600.79
  Q 788.05 600.12 787.14 598.30
  C 785.76 595.54 786.53 594.35 787.23 591.85
  Q 787.49 590.94 787.64 591.87
  Q 787.68 592.12 787.95 592.13
  Q 788.18 592.14 788.38 592.10
  Q 789.24 591.92 788.51 591.44
  Q 786.77 590.31 787.41 589.21
  C 790.67 591.72 793.88 594.35 797.54 596.08
  Q 802.47 598.41 808.44 600.27
  Q 813.72 601.91 819.66 602.21
  Q 833.33 602.91 842.19 601.37
  Q 850.19 599.97 858.93 594.74
  Q 867.79 589.43 875.33 582.38
  Q 878.16 579.73 881.29 577.81
  C 887.44 574.03 892.84 571.06 900.25 574.15
  C 904.95 576.11 910.05 580.61 912.09 585.68
  Q 913.02 588.00 913.96 590.17
  A 2.05 2.02 42.5 0 1 914.03 591.59
  Q 911.02 601.13 903.40 608.56
  C 896.39 615.40 888.33 620.85 879.97 625.51
  Q 872.22 629.83 862.04 633.05
  Q 851.91 636.26 844.47 636.68
  Q 826.14 637.72 807.34 636.69
  C 801.42 636.36 795.95 634.38 790.25 633.07
  Q 788.84 632.74 787.39 632.10
  Q 785.90 631.44 784.64 630.96
  Z"
/>
</svg>
